<svg xmlns="http://www.w3.org/2000/svg" width="371.3" height="512" viewBox="0 0 371.3 512">
  <path d="M367.8 415.1l-25-46.9V252.5c0-71.6-48.1-132.1-113.6-151.1V43.6c0-24.1-19.6-43.6-43.6-43.6S142 19.6 142 43.6v57.8c-65.5 19-113.6 79.5-113.6 151.1v115.8l-25 46.9c-4.8 9-4.5 19.7.7 28.4 5.3 8.8 14.5 14 24.7 14H128c1.7 30.3 26.9 54.4 57.6 54.4 30.7 0 55.9-24.1 57.6-54.4h99.2c10.2 0 19.5-5.2 24.7-14 5.3-8.8 5.6-19.4.7-28.5zM165.1 43.6c0-11.3 9.2-20.5 20.5-20.5s20.5 9.2 20.5 20.5v53c-6.7-.9-13.6-1.3-20.5-1.3-7 0-13.8.5-20.5 1.3v-53zM51.5 252.5c0-74 60.2-134.1 134.1-134.1s134.1 60.2 134.1 134.1v106.2H51.5V252.5zm134.1 236.4c-18 0-32.8-13.8-34.4-31.4h68.9c-1.7 17.6-16.5 31.4-34.5 31.4zm161.7-57.2c-.5.8-2 2.8-4.9 2.8H28.9c-2.9 0-4.4-2-4.9-2.8-.5-.8-1.5-3.1-.1-5.7l23.5-44.2H324l23.5 44.2c1.4 2.6.3 4.8-.2 5.7z"/>
  <path d="M185.6 149.1c-57 0-103.4 46.4-103.4 103.4 0 6.4 5.2 11.5 11.5 11.5s11.5-5.2 11.5-11.5c0-44.3 36-80.3 80.3-80.3 6.4 0 11.5-5.2 11.5-11.5.2-6.4-5-11.6-11.4-11.6z"/>
</svg>