<svg xmlns="http://www.w3.org/2000/svg" width="292.1" height="68" viewBox="0 0 292.1 68" overflow="scroll">
  <style>
    .st0{fill:#DAEEF7;} .st1{fill:#fff;}
  </style>
  <path class="st1" d="M170 59.8c-15.4 0-27.9-12.7-27.9-28.4V2.6c0-1.1.9-1.9 1.9-1.9 1.1 0 1.9.9 1.9 1.9v28.7c0 13.5 10.8 24.5 24.1 24.5s24.1-11 24.1-24.5V2.6c0-1.1.9-1.9 1.9-1.9 1.1 0 1.9.9 1.9 1.9v28.7C198 47 185.4 59.8 170 59.8z"/>
  <path class="st1" d="M169.9 22.6c-1.1 0-1.9-.9-1.9-1.9 0-6.3-4.9-11.5-10.8-11.5-6.1 0-11.2 5-11.2 11 0 1.1-.9 1.9-1.9 1.9-1.1 0-1.9-.9-1.9-1.9 0-8.1 6.9-14.9 15.1-14.9 5.4 0 10.2 3.2 12.7 7.9 2.6-4.7 7.4-7.9 12.7-7.9 8.3 0 15.3 6.8 15.3 14.9 0 1.1-.9 1.9-1.9 1.9-1.1 0-1.9-.9-1.9-1.9 0-5.9-5.3-11-11.4-11-5.8 0-10.8 5.3-10.8 11.5-.2 1-1 1.9-2.1 1.9z"/>
  <path class="st1" d="M151.6 22.4c-.9 0-1.8-.7-1.9-1.6-.1-.4-.1-.7-.1-1.1 0-3.9 3.2-7.2 7.1-7.2 3.3 0 6.3 2.4 6.9 5.7.2 1.1-.5 2.1-1.5 2.3-1 .2-2.1-.5-2.3-1.5-.3-1.5-1.6-2.6-3.1-2.6-1.8 0-3.2 1.5-3.2 3.3v.5c.2 1.1-.6 2.1-1.6 2.2h-.3zm36.6 0h-.3c-1.1-.2-1.8-1.2-1.6-2.2v-.5c0-1.8-1.4-3.3-3.2-3.3-1.5 0-2.8 1.1-3.1 2.6-.2 1.1-1.2 1.7-2.3 1.5-1.1-.2-1.7-1.2-1.5-2.3.7-3.3 3.6-5.7 6.9-5.7 3.9 0 7.1 3.2 7.1 7.2 0 .4 0 .7-.1 1.1-.1.9-1 1.6-1.9 1.6zm-18.4 13.8c-.2 0-.3 0-.5-.1-.9-.2-1.4-1-1.4-1.9l.1-13.7c0-1.1.9-1.9 1.9-1.9 1.1 0 1.9.9 1.9 2l-.1 9.8c.1 0 .1.1.2.1.9.5 1.3 1.7.7 2.6l-1.2 2.1c-.3.7-.9 1-1.6 1z"/>
  <path class="st1" d="M169.8 36.2c-.7 0-1.3-.4-1.7-1l-1.2-2.1c-.5-.9-.2-2.1.7-2.6.1 0 .2-.1.3-.1l.1-9.8c0-1.1.9-1.9 1.9-1.9 1.1 0 1.9.9 1.9 2l-.1 13.7c0 .9-.6 1.6-1.5 1.9-.1-.1-.3-.1-.4-.1zm-11.3 29.5c-1.1 0-1.9-.9-1.9-1.9v-8.7c0-1.1.9-1.9 1.9-1.9 1.1 0 1.9.9 1.9 1.9v8.7c0 1-.9 1.9-1.9 1.9zm23.1 0c-1.1 0-1.9-.9-1.9-1.9v-8.7c0-1.1.9-1.9 1.9-1.9 1.1 0 1.9.9 1.9 1.9v8.7c.1 1-.8 1.9-1.9 1.9z"/>
  <path class="st1" d="M162.7 67.5c-.5 0-1.1-.2-1.4-.6 0 0-1.1-1.2-2.8-1.2-1.9 0-3.3 1.2-3.3 1.3-.8.8-2 .7-2.7 0-.8-.8-.7-2 0-2.7.2-.2 2.5-2.4 6.1-2.4 3.3 0 5.4 2.2 5.6 2.5.7.8.7 2-.1 2.7-.5.3-1 .4-1.4.4zm14.7 0c-.5 0-.9-.2-1.3-.5-.8-.7-.9-2-.1-2.7.2-.2 2.3-2.4 5.6-2.5h.1c3.5 0 5.8 2.1 6 2.4.8.8.8 2 0 2.7-.7.8-2 .8-2.7 0-.1 0-1.4-1.3-3.3-1.3-1.7 0-2.8 1.2-2.8 1.2-.4.5-1 .7-1.5.7zm-159.7.1C7.9 67.6 0 59.7 0 49.9c0-1 .9-1.9 1.9-1.9s1.9.9 1.9 1.9c0 7.6 6.2 13.8 13.8 13.8s13.8-6.2 13.8-13.8c0-8.6-.9-13.8-13.8-13.8-7.5 0-12.2-1.7-15-5.4C.2 27.3 0 22.8 0 18.4 0 8.7 7.9.8 17.7.8s17.7 7.9 17.7 17.7c0 1.1-.9 1.9-1.9 1.9-1.1 0-1.9-.9-1.9-1.9 0-7.6-6.2-13.8-13.8-13.8S3.9 10.8 3.9 18.4c0 8.6.9 13.8 13.8 13.8 7.5 0 12.2 1.7 15 5.4 2.5 3.4 2.7 7.9 2.7 12.3 0 9.8-8 17.7-17.7 17.7zm256.8.1c-9.7 0-17.7-7.9-17.7-17.7 0-1.1.9-1.9 1.9-1.9s1.9.9 1.9 1.9c0 7.6 6.2 13.8 13.8 13.8s13.8-6.2 13.8-13.8c0-8.6-.9-13.8-13.8-13.8-7.5 0-12.2-1.7-15-5.4-2.5-3.4-2.7-7.9-2.7-12.3 0-9.7 7.9-17.7 17.7-17.7s17.7 7.9 17.7 17.7c0 1.1-.9 1.9-1.9 1.9-1.1 0-1.9-.9-1.9-1.9 0-7.6-6.2-13.8-13.8-13.8s-13.8 6.2-13.8 13.8c0 8.6.9 13.8 13.8 13.8 7.5 0 12.2 1.7 15 5.4 2.5 3.4 2.7 7.9 2.7 12.3-.1 9.8-8 17.7-17.7 17.7zM69 67.8c-10.4 0-18.8-8.4-18.8-18.8V19.7C50.3 9.4 58.7.9 69 .9s18.8 8.4 18.8 18.8c0 1.1-.9 1.9-1.9 1.9s-1.9-.9-1.9-1.9c0-8.2-6.7-14.9-14.9-14.9s-14.9 6.7-14.9 14.9V49c0 8.2 6.7 14.9 14.9 14.9S84 57.2 84 49c0-1.1.9-1.9 1.9-1.9s1.9.9 1.9 1.9c0 10.4-8.4 18.8-18.8 18.8zm50.7-29.2h-16.9c-1.1 0-1.9-.9-1.9-1.9s.9-1.9 1.9-1.9h16.9c8.2 0 14.9-6.7 14.9-14.9 0-1.1.9-1.9 1.9-1.9s1.9.9 1.9 1.9c.1 10.3-8.3 18.7-18.7 18.7z"/>
  <path class="st1" d="M102.9 67.9c-1.1 0-1.9-.9-1.9-1.9V3.3c0-2.1 1.9-2.1 1.9-2.1h16.8c10.4 0 18.8 8.4 18.8 18.8 0 1.1-.9 1.9-1.9 1.9s-1.9-.9-1.9-1.9c0-8.2-6.7-14.9-14.9-14.9h-14.9v61c-.1.9-.9 1.8-2 1.8z"/>
  <path class="st1" d="M133.1 67.9c-.7 0-1.4-.4-1.7-1l-15.6-29.3c-.5-.9-.1-2.1.8-2.6s2.1-.1 2.6.8L134.8 65c.5.9.1 2.1-.8 2.6-.2.2-.6.3-.9.3zm70.4.1c-1.1 0-1.9-.9-1.9-1.9V2c0-.8.5-1.6 1.3-1.8.8-.3 1.6 0 2.2.6l22.9 28L250.9.7c.5-.6 1.4-.9 2.2-.6.8.3 1.3 1 1.3 1.8v64c0 1.1-.9 1.9-1.9 1.9-1.1 0-1.9-.9-1.9-1.9V7.4l-20.7 25.4c-.2.5-.6.8-1.1 1-.8.3-1.6 0-2.2-.6l-21-25.7V66c-.2 1.1-1 2-2.1 2z"/>
</svg>