<svg xmlns="http://www.w3.org/2000/svg" xmlns:xlink="http://www.w3.org/1999/xlink" xmlns:fi="http://pattern.flaticon.com/" width="700" height="350" viewBox="0 0 700 350">
  <defs>
    <path d="M178.506 117.568h.813c.32-1.272 1.48-2.216 2.85-2.216h4.55v-3.812c-.85-.3-1.45-1.11-1.45-2.056v-6.277c-.76.287-1.57.438-2.41.438h-.08c-1.55 0-2.8-1.257-2.8-2.8V92.91c0-1.543 1.25-2.8 2.8-2.8 3.74 0 6.81 3.013 6.84 6.716v12.658c0 .947-.61 1.755-1.45 2.056v3.812h9.41c.68 0 1.24-.556 1.24-1.24v-2.572c-.85-.3-1.45-1.11-1.45-2.056v-6.2c-2.67-.91-4.59-3.438-4.59-6.407 0-3.73 3.03-6.767 6.76-6.767s6.76 3.036 6.76 6.767c0 2.97-1.92 5.497-4.58 6.406v6.2c0 .948-.607 1.756-1.45 2.057v2.572c0 1.49-1.21 2.7-2.7 2.7h-15.42c-.557 0-1.04.306-1.296.756H201.6c1.018 0 1.84.825 1.84 1.84s-.82 1.837-1.833 1.837h-19.44c-1.374 0-2.53-.943-2.857-2.216h-.813c-.947 0-1.717.76-1.717 1.71 0 .9.74 1.64 1.64 1.64h27.51c.405 0 .73.32.73.73s-.325.73-.73.73h-27.51c-1.71 0-3.1-1.39-3.1-3.1 0-1.75 1.428-3.18 3.18-3.18zm2.947-24.657v7.94c0 .74.6 1.34 1.34 1.34h.004V91.57h-.005c-.738 0-1.34.602-1.34 1.34zm2.805-1.13V102c.89-.24 1.708-.71 2.376-1.384 1.004-1.012 1.55-2.353 1.54-3.78-.018-2.402-1.675-4.433-3.916-5.062zm3.413 9.87c-.29.3-.6.56-.94.79v7.05c0 .4.33.72.73.72s.72-.32.72-.72v-8.4c-.15.2-.32.39-.5.57zm17.2-4.76c0-2.92-2.38-5.3-5.3-5.3s-5.3 2.38-5.3 5.31 2.38 5.31 5.31 5.31 5.31-2.38 5.31-5.3zm-5.3 6.77c-.24 0-.48-.01-.72-.04v5.88c0 .4.32.72.72.72.4 0 .72-.32.72-.72v-5.88c-.24.03-.48.04-.72.04zm-17.39 16.14h19.45c.21 0 .38-.17.38-.37s-.17-.38-.37-.38H180.9c.253.45.737.76 1.29.76z" id="a" fill="#fff"/>
    <g id="c" fill="#fff">
      <path d="M285.243 266.31l-18.748-10.823c-.306-.177-.684-.177-.99 0l-18.748 10.824c-.306.18-.495.51-.495.86v21.65c0 .36.19.68.495.86l18.748 10.83c.153.09.324.13.495.13s.342-.04.495-.13l18.748-10.82c.306-.17.495-.5.495-.86v-21.65c0-.35-.19-.68-.495-.85zm-1.484 20.476l-.64-.37c-.48-.272-1.08-.11-1.36.363-.28.47-.11 1.07.36 1.35l.91.53-16.06 9.26v-18.67h.03c.34 0 .67-.18.86-.5.14-.25.16-.52.09-.77l15.78-9.11v17.9zm-33.53-.007c-.28-.48-.88-.64-1.35-.37l-.64.37v-17.9l15.78 9.11c-.08.25-.05.53.09.77.18.31.51.49.86.49l.03-.01v18.67l-16.06-9.27.91-.53c.47-.28.63-.88.36-1.35zM266 259.47c.547 0 .99-.444.99-.99v-.422l15.78 9.11-15.8 9.12c-.092-.45-.492-.79-.97-.79s-.877.34-.97.792l-15.8-9.122 15.78-9.11v.422c0 .546.444.99.99.99z"/>
      <path d="M273.45 283.12l1.764 1.02c.156.09.326.132.494.132.342 0 .675-.178.858-.495.274-.474.11-1.08-.362-1.352l-1.765-1.02c-.48-.273-1.08-.11-1.36.362s-.11 1.08.36 1.352zm-4.342-2.506l1.766 1.02c.156.09.326.132.494.132.342 0 .675-.178.858-.495.273-.47.11-1.07-.362-1.35l-1.766-1.02c-.473-.27-1.08-.11-1.352.37-.273.48-.11 1.08.362 1.35zm8.682 5.01l1.765 1.02c.156.09.326.133.494.133.34 0 .67-.177.85-.495.27-.473.11-1.078-.37-1.35l-1.77-1.02c-.48-.274-1.08-.112-1.36.36-.28.475-.11 1.08.36 1.353zm-17.158-3.858c.168 0 .338-.043.494-.133l1.766-1.02c.473-.273.635-.878.362-1.35-.273-.475-.88-.637-1.352-.364l-1.766 1.02c-.473.27-.635.87-.362 1.35.183.31.516.49.858.49zm-8.68 5.01c.167 0 .337-.04.493-.13l1.766-1.02c.48-.274.64-.88.37-1.35-.27-.476-.88-.638-1.35-.365l-1.76 1.02c-.47.28-.63.88-.36 1.36.19.32.52.5.86.5zm4.34-2.504c.168 0 .338-.043.494-.133l1.765-1.02c.48-.28.64-.88.37-1.36-.27-.48-.88-.64-1.35-.36l-1.76 1.02c-.47.27-.63.88-.36 1.35.19.31.52.49.86.49zm8.718-20.78c0 .546.444.99.99.99s.99-.444.99-.99v-2.04c0-.546-.443-.99-.99-.99s-.99.444-.99.99v2.04zm.99 1.983c-.546 0-.99.443-.99.99v2.04c0 .545.444.988.99.988s.99-.443.99-.99v-2.038c0-.547-.443-.99-.99-.99zm0 5.012c-.546 0-.99.443-.99.99v2.038c0 .547.444.99.99.99s.99-.443.99-.99v-2.038c0-.547-.443-.99-.99-.99z"/>
    </g>
    <g id="e" fill="#fff">
      <path d="M106.906 234.034c.31.22.742.145.962-.166s.146-.743-.165-.963l-2.774-1.958 1.05-1.49 2.77 1.96c.31.22.74.145.96-.167s.14-.743-.17-.963l-2.78-1.958 1.63-2.32c.22-.31.14-.75-.17-.97l-2.32-1.64 1.96-2.78c.22-.31.14-.74-.17-.96s-.746-.15-.966.16l-1.958 2.77-1.49-1.05 1.96-2.77c.22-.31.14-.74-.17-.96s-.745-.15-.965.16l-1.96 2.772-1.49-1.05 1.96-2.777c.22-.31.146-.74-.166-.96s-.74-.147-.96.165l-1.96 2.774-1.486-1.054 1.96-2.772c.22-.31.143-.74-.168-.96s-.744-.143-.964.17l-1.96 2.77-1.49-1.05 1.96-2.77c.22-.315.15-.746-.164-.966s-.744-.145-.964.167l-1.96 2.772-2.32-1.63c-.31-.22-.744-.145-.964.167l-1.637 2.32-2.77-1.96c-.31-.22-.74-.145-.96.17s-.147.74.165.96l2.77 1.96-1.05 1.49-2.773-1.96c-.313-.22-.744-.145-.964.17s-.15.74.163.96l2.77 1.96-1.05 1.49-2.774-1.96c-.31-.22-.74-.147-.96.165s-.146.747.166.967l2.775 1.96-1.05 1.49-2.77-1.957c-.31-.22-.74-.145-.96.166s-.148.74.163.96l2.776 1.96-1.05 1.49-2.77-1.96c-.31-.22-.745-.144-.965.168s-.14.742.17.962l2.78 1.96-1.64 2.32c-.22.31-.145.745.167.965l2.32 1.64-1.96 2.774c-.22.31-.146.743.166.963s.74.14.96-.17l1.96-2.78 1.49 1.05-1.96 2.77c-.22.31-.144.74.17.96s.74.144.96-.168l1.96-2.775 1.49 1.05-1.96 2.775c-.22.31-.14.74.17.96s.74.147.96-.165l1.96-2.776 1.49 1.053-1.95 2.78c-.22.31-.14.746.17.966s.744.14.964-.17l1.955-2.77 1.49 1.05-1.96 2.77c-.22.316-.143.747.17.967s.74.145.96-.167l1.96-2.772 2.317 1.64c.31.22.744.144.964-.17l1.638-2.32 2.78 1.96c.31.22.74.147.96-.165s.145-.74-.167-.96l-2.77-1.967 1.05-1.49 2.78 1.96c.31.22.74.142.96-.17s.144-.743-.168-.963l-2.77-1.96 1.05-1.49 2.77 1.96c.31.22.74.147.96-.165s.15-.744-.162-.964l-2.772-1.96 1.053-1.487 2.772 1.96zm-4.954-1.266l-.498-.352c-.31-.22-.742-.145-.962.166s-.146.743.166.963l.497.35-1.05 1.49-.498-.35c-.312-.22-.743-.147-.963.165s-.146.743.166.963l.498.35-1.05 1.49-.5-.352c-.31-.22-.742-.14-.962.17s-.145.75.166.97l.498.36-1.238 1.76-1.755-1.24.352-.5c.22-.31.14-.74-.17-.96s-.75-.14-.97.17l-.35.5-1.49-1.05.35-.5c.22-.31.14-.74-.17-.96s-.75-.145-.97.166l-.35.498-1.49-1.05.35-.5c.22-.31.14-.74-.17-.96s-.75-.143-.97.17l-.35.497-1.49-1.05.35-.492c.22-.313.15-.744-.165-.964s-.746-.146-.966.166l-.35.5-1.49-1.05.35-.5c.22-.31.145-.74-.166-.96s-.74-.15-.96.162l-.35.494-1.758-1.238 1.24-1.755.493.355c.31.22.743.147.963-.164s.145-.746-.167-.966l-.498-.35 1.05-1.49.493.35c.31.22.743.145.963-.167s.146-.745-.165-.966l-.5-.35 1.05-1.49.5.35c.31.22.74.145.96-.166s.146-.74-.166-.96l-.5-.35 1.05-1.49.5.35c.315.22.746.144.966-.168s.145-.746-.167-.966l-.5-.35 1.05-1.49.5.352c.31.22.74.14.96-.17s.146-.744-.165-.964l-.5-.354 1.24-1.754 1.757 1.236-.35.5c-.22.31-.146.74.165.96s.74.145.96-.167l.35-.5 1.49 1.05-.35.494c-.22.31-.147.74.165.96s.74.14.962-.17l.35-.495 1.49 1.05-.357.5c-.22.31-.14.74.17.96s.744.15.964-.162l.35-.492 1.49 1.05-.35.5c-.22.31-.144.742.168.962s.74.146.96-.166l.35-.5 1.49 1.05-.35.5c-.22.31-.142.74.17.96s.744.147.964-.164l.35-.5 1.76 1.235-1.24 1.76-.5-.356c-.31-.22-.74-.146-.96.165s-.145.747.167.967l.5.35-1.05 1.49-.5-.35c-.31-.22-.74-.147-.96.165s-.146.74.165.96l.494.35-1.05 1.49z"/>
      <path d="M99.575 226.543l-6.07-4.284c-.31-.22-.742-.15-.962.16l-4.284 6.07c-.22.31-.15.74.16.96l6.07 4.28c.31.22.74.14.96-.17l4.28-6.07c.22-.31.14-.74-.17-.96zm-4.848 5.67l-4.94-3.486 3.486-4.94 4.94 3.486-3.486 4.94z"/>
    </g>
    <path d="M50.79 40.6l-8.897-2.76-5.488-10.428c-.71-1.35-2.388-1.87-3.74-1.16l-15.847 8.34c-1.35.712-1.87 2.39-1.16 3.74L27.05 59.98c.712 1.35 2.39 1.87 3.74 1.16l15.847-8.342c1.35-.71 1.872-2.388 1.16-3.74l-2.547-4.84 4.03 1.25c.67.21 1.364.125 1.942-.18s1.04-.826 1.248-1.497c.416-1.34-.337-2.77-1.68-3.19zM33.354 39l-1.43-1.585 2.077-.5 14.9 4.624-.64 2.08L33.36 39zm-15.857-3.118l15.848-8.34c.618-.327 1.38-.107 1.734.485l-18.17 9.56c-.29-.628-.04-1.38.58-1.705zm10.2 22.195l-10.106-19.2 9.24-4.862 2.62 23.14-1.75.922zM45.96 51.51l-15.85 8.34c-.62.326-1.38.106-1.735-.486l18.163-9.56c.287.628.037 1.38-.58 1.705zm-.094-2.996L30.83 56.428l-2.62-23.14 7.55-3.974 4.166 7.916-5.686-1.765c-.125-.04-.258-.043-.386-.013l-3.46.832c-.25.06-.45.247-.525.493-.08.245-.02.512.15.703l2.38 2.645c.09.097.2.17.32.208l10.55 3.275 2.58 4.906zm5.213-5.155c-.18.57-.8.89-1.37.71l-.07-.02.65-2.09.07.02c.57.18.89.79.72 1.37z" id="g" fill="#fff"/>
  </defs>
  <g fi:class="KUsePattern">
    <pattern id="b" width="350" height="350" patternUnits="userSpaceOnUse">
      <use xlink:href="#a" x="-350" y="-350"/>
      <use xlink:href="#a" y="-350"/>
      <use xlink:href="#a" x="350" y="-350"/>
      <use xlink:href="#a" x="-350"/>
      <use xlink:href="#a"/>
      <use xlink:href="#a" x="350"/>
      <use xlink:href="#a" x="-350" y="350"/>
      <use xlink:href="#a" y="350"/>
      <use xlink:href="#a" x="350" y="350"/>
    </pattern>
    <rect width="100%" height="100%" fill="url(#b)"/>
  </g>
  <g fi:class="KUsePattern">
    <pattern id="d" width="350" height="350" patternUnits="userSpaceOnUse">
      <use xlink:href="#c" x="-350" y="-350"/>
      <use xlink:href="#c" y="-350"/>
      <use xlink:href="#c" x="350" y="-350"/>
      <use xlink:href="#c" x="-350"/>
      <use xlink:href="#c"/>
      <use xlink:href="#c" x="350"/>
      <use xlink:href="#c" x="-350" y="350"/>
      <use xlink:href="#c" y="350"/>
      <use xlink:href="#c" x="350" y="350"/>
    </pattern>
    <rect width="100%" height="100%" fill="url(#d)"/>
  </g>
  <g fi:class="KUsePattern">
    <pattern id="f" width="350" height="350" patternUnits="userSpaceOnUse">
      <use xlink:href="#e" x="-350" y="-350"/>
      <use xlink:href="#e" y="-350"/>
      <use xlink:href="#e" x="350" y="-350"/>
      <use xlink:href="#e" x="-350"/>
      <use xlink:href="#e"/>
      <use xlink:href="#e" x="350"/>
      <use xlink:href="#e" x="-350" y="350"/>
      <use xlink:href="#e" y="350"/>
      <use xlink:href="#e" x="350" y="350"/>
    </pattern>
    <rect width="100%" height="100%" fill="url(#f)"/>
  </g>
  <g fi:class="KUsePattern">
    <pattern id="h" width="350" height="350" patternUnits="userSpaceOnUse">
      <use xlink:href="#g" x="-350" y="-350"/>
      <use xlink:href="#g" y="-350"/>
      <use xlink:href="#g" x="350" y="-350"/>
      <use xlink:href="#g" x="-350"/>
      <use xlink:href="#g"/>
      <use xlink:href="#g" x="350"/>
      <use xlink:href="#g" x="-350" y="350"/>
      <use xlink:href="#g" y="350"/>
      <use xlink:href="#g" x="350" y="350"/>
    </pattern>
    <rect width="100%" height="100%" fill="url(#h)"/>
  </g>
</svg>