<svg xmlns="http://www.w3.org/2000/svg" width="493.5" height="493.6" viewBox="0 0 493.5 493.6">
  <path fill="#1F91E5" d="M132.7 315.7L2.6 474.8c-3.4 4.1-3.5 10.2 0 14.5 4 4.9 11.2 5.6 16.1 1.6l159.1-130.1c-8.1-7.2-16-14.6-23.2-21.9-7.6-7.6-14.9-15.4-21.9-23.2zm306-260.8C394.2 10.4 343.9-11.5 326.4 6c-.9.9-92.8 126.2-138.8 189-30.2-21.5-57.2-34.1-74.7-34.1-6.4 0-11.5 1.7-15 5.2-19.2 19.2 16.6 86.1 80 149.5 51.8 51.8 106 85.2 134.5 85.2 6.4 0 11.5-1.7 15-5.2 13.1-13.1.5-48.4-28.9-89.7 62.8-46 188-137.9 188.9-138.8 17.6-17.4-4.2-67.7-48.7-112.2z"/>
</svg>