<svg xmlns="http://www.w3.org/2000/svg" width="395.9" height="512" viewBox="0 0 395.9 512" overflow="scroll">
  <path d="M286.6 512c-60.3 0-109.4-49.1-109.4-109.4 0-55.3 41.3-101.9 96.1-108.6 8.3-1 15.8 4.9 16.8 13.2 1 8.3-4.9 15.8-13.2 16.8-39.6 4.8-69.5 38.6-69.5 78.6 0 43.6 35.5 79.1 79.1 79.1s79.1-35.5 79.1-79.1c0-16.9-5.3-33.1-15.2-46.7-4.9-6.7-3.5-16.2 3.3-21.1 6.7-4.9 16.2-3.5 21.1 3.3 13.8 18.8 21.1 41.2 21.1 64.6.1 60.2-49 109.3-109.3 109.3z"/>
  <path d="M324.5 387.9h-22.8v-22.8c0-8.3-6.8-15.1-15.1-15.1s-15.1 6.8-15.1 15.1v22.8h-22.8c-8.3 0-15.1 6.8-15.1 15.1s6.8 15.1 15.1 15.1h22.8v22.8c0 8.4 6.8 15.1 15.1 15.1s15.1-6.8 15.1-15.1v-22.8h22.8c8.3 0 15.1-6.8 15.1-15.1s-6.8-15.1-15.1-15.1zM283.9 84.7c-14.3-42-43.3-48.3-59.2-48.3-3.8 0-7.3.4-10.4.8C202.9 23.7 179.6 0 156.7 0h-1.9c-1.2 0-2.4.2-3.5.4-3.5.6-6.8 1.7-9.9 3.3-43.5 23.4-57.7 26.5-67.1 28.5-3.4.7-6.8 1.5-10.8 2.9-3.5 1.2-6.6 2.3-9.4 3.2-13.7 4.6-22 7.4-27.3 15.5-5.7 8.7-4.2 18.1-2.1 31 4.9 29.8 8.4 58.6 10.6 85.7v18.7c0 30.8 11.7 58.9 30.9 80.2C26.2 289 0 331.7 0 381.4v110.9c0 8.4 6.8 15.1 15.1 15.1h140c8.3 0 15.1-6.8 15.1-15.1s-6.8-15.1-15.1-15.1H30.3v-95.8c0-43.9 24.8-79.2 62.4-89.8 18.2 11.2 39.6 17.6 62.5 17.6 66.1 0 119.9-53.8 119.9-119.9v-19.2c.1-.8.3-1.5.4-2.3l.3-2.1c.8-5.2 2.8-11.3 4.8-17.9 3.5-10.9 7-22.2 7-33.6-.1-12.8-1.3-22.4-3.7-29.5zM63.7 67.1c2.9-1 6.1-2 9.7-3.3 2.2-.8 4.3-1.2 7.3-1.9 11.7-2.6 27.8-6.1 75-31.5.1 0 .2-.1.6-.2h.3c8.9 0 28.1 17.4 39.7 33.1 4.2 5.6 11.3 7.7 17.7 5 .6-.2 4.9-1.7 10.6-1.7 14.2 0 24.2 9.1 30.6 27.8.6 1.7 2 7.2 2 19.8 0 2-.2 4.2-.7 6.5-10.6-19-22.5-28.2-36-28.2-6.2 0-12.2 2.1-17.7 6.1-16.3 11.7-38.7 25.9-44.7 27.9-39.8 4.4-73.7 14.4-94 21.5l-.9-1.8c-2.2-21.4-5.2-43.7-8.9-66.4-.5-2.9-1.1-6.6-1.4-9.2 2.8-.9 6.8-2.2 10.8-3.5zM155.1 279c-49.4 0-89.7-40.2-89.7-89.7v-9.4c16.3-6.2 53.1-18.6 96.7-23.3 14.7-1.6 53.8-29.9 58.6-33.4 1.9 1.3 7.7 6.5 15.3 24.3 4.6 10.7 7.7 21.1 8.8 24.8v17.1c0 49.4-40.2 89.6-89.7 89.6z"/>
</svg>